<svg xmlns="http://www.w3.org/2000/svg" viewBox="0 0 1920 1080" width="1920" height="1080" preserveAspectRatio="xMidYMid slice">
  <defs>
    <!-- Background Base Gradient -->
    <radialGradient id="baseGlow" cx="45%" cy="40%" r="75%">
      <stop offset="0%" stop-color="#16383b" />
      <stop offset="40%" stop-color="#112229" />
      <stop offset="75%" stop-color="#0e1722" />
      <stop offset="100%" stop-color="#090d14" />
    </radialGradient>

    <!-- Teal Caustic Ribbon 1 -->
    <radialGradient id="tealRibbon1" cx="35%" cy="30%" r="50%">
      <stop offset="0%" stop-color="#14B8A6" stop-opacity="0.7" />
      <stop offset="35%" stop-color="#0D9488" stop-opacity="0.45" />
      <stop offset="70%" stop-color="#0F766E" stop-opacity="0.15" />
      <stop offset="100%" stop-color="#111827" stop-opacity="0" />
    </radialGradient>

    <!-- Cyan Caustic Ribbon 2 -->
    <radialGradient id="cyanRibbon2" cx="70%" cy="65%" r="45%">
      <stop offset="0%" stop-color="#2DD4BF" stop-opacity="0.6" />
      <stop offset="40%" stop-color="#14B8A6" stop-opacity="0.35" />
      <stop offset="80%" stop-color="#092d30" stop-opacity="0.1" />
      <stop offset="100%" stop-color="#090d14" stop-opacity="0" />
    </radialGradient>

    <!-- Soft Ivory Specular Glow -->
    <radialGradient id="ivorySpecular" cx="50%" cy="25%" r="35%">
      <stop offset="0%" stop-color="#FFFFFF" stop-opacity="0.35" />
      <stop offset="25%" stop-color="#CCFBF1" stop-opacity="0.18" />
      <stop offset="60%" stop-color="#14B8A6" stop-opacity="0.05" />
      <stop offset="100%" stop-color="#111827" stop-opacity="0" />
    </radialGradient>

    <!-- Deep Charcoal Shading Vignette -->
    <radialGradient id="vignette" cx="50%" cy="50%" r="70%">
      <stop offset="0%" stop-color="#000000" stop-opacity="0" />
      <stop offset="65%" stop-color="#000000" stop-opacity="0.45" />
      <stop offset="100%" stop-color="#070a10" stop-opacity="0.88" />
    </radialGradient>

    <!-- Cylindrical Flute Gradient -->
    <linearGradient id="fluteGradient" x1="0%" y1="0%" x2="100%" y2="0%">
      <stop offset="0%" stop-color="rgba(0, 0, 0, 0.45)" />
      <stop offset="20%" stop-color="rgba(255, 255, 255, 0.05)" />
      <stop offset="35%" stop-color="rgba(255, 255, 255, 0.22)" />
      <stop offset="60%" stop-color="rgba(255, 255, 255, 0.06)" />
      <stop offset="85%" stop-color="rgba(0, 0, 0, 0.25)" />
      <stop offset="100%" stop-color="rgba(0, 0, 0, 0.5)" />
    </linearGradient>

    <!-- Smooth Distortion / Caustic Paths -->
    <linearGradient id="waveGrad1" x1="15%" y1="10%" x2="85%" y2="90%">
      <stop offset="0%" stop-color="#14B8A6" stop-opacity="0.55" />
      <stop offset="30%" stop-color="#2DD4BF" stop-opacity="0.4" />
      <stop offset="65%" stop-color="#0F766E" stop-opacity="0.25" />
      <stop offset="100%" stop-color="#0B131F" stop-opacity="0" />
    </linearGradient>

    <linearGradient id="waveGrad2" x1="80%" y1="15%" x2="20%" y2="85%">
      <stop offset="0%" stop-color="#5EEAD4" stop-opacity="0.4" />
      <stop offset="45%" stop-color="#14B8A6" stop-opacity="0.3" />
      <stop offset="85%" stop-color="#0D9488" stop-opacity="0.1" />
      <stop offset="100%" stop-color="#090d14" stop-opacity="0" />
    </linearGradient>

    <filter id="glassBlur" x="-10%" y="-10%" width="120%" height="120%">
      <feGaussianBlur stdDeviation="45" />
    </filter>
    <filter id="softBlur" x="-10%" y="-10%" width="120%" height="120%">
      <feGaussianBlur stdDeviation="20" />
    </filter>
  </defs>

  <!-- Base Dark Canvas -->
  <rect width="1920" height="1080" fill="url(#baseGlow)" />

  <!-- Volumetric Fluid Caustic Ribbons (Blurred behind the flutes) -->
  <g filter="url(#glassBlur)">
    <!-- Organic sweeping wave 1 -->
    <path d="M-100,200 C300,50 600,450 1100,250 C1500,100 1700,500 2050,350 L2050,900 L-100,900 Z" fill="url(#waveGrad1)" />
    <!-- Organic sweeping wave 2 -->
    <path d="M-50,600 C400,300 800,800 1300,450 C1700,200 1900,700 2100,550 L2100,1150 L-50,1150 Z" fill="url(#waveGrad2)" />
    <!-- Focal Glowing Pools -->
    <ellipse cx="650" cy="380" rx="550" ry="320" fill="url(#tealRibbon1)" transform="rotate(-18 650 380)" />
    <ellipse cx="1400" cy="650" rx="500" ry="300" fill="url(#cyanRibbon2)" transform="rotate(22 1400 650)" />
    <ellipse cx="960" cy="280" rx="380" ry="200" fill="url(#ivorySpecular)" />
  </g>

  <!-- Secondary Sharp Refraction Strands -->
  <g filter="url(#softBlur)" opacity="0.65">
    <path d="M100,150 Q500,500 1000,280 T1850,480" fill="none" stroke="#2DD4BF" stroke-width="28" stroke-linecap="round" />
    <path d="M250,750 Q800,350 1300,680 T1950,220" fill="none" stroke="#14B8A6" stroke-width="22" stroke-linecap="round" />
    <path d="M400,180 Q850,260 1200,160" fill="none" stroke="#FFFFFF" stroke-width="12" stroke-linecap="round" opacity="0.5" />
  </g>

  <!-- Vertical Fluted Glass Grid -->
  <g id="flutedGrid">
    <rect x="0" y="0" width="24" height="1080" fill="url(#fluteGradient)" mix-blend-mode="overlay" opacity="0.85" />
<line x1="8.399999999999999" y1="0" x2="8.399999999999999" y2="1080" stroke="rgba(255,255,255,0.18)" stroke-width="1.2" />
<line x1="24" y1="0" x2="24" y2="1080" stroke="rgba(0,0,0,0.4)" stroke-width="1.2" />
<rect x="24" y="0" width="24" height="1080" fill="url(#fluteGradient)" mix-blend-mode="overlay" opacity="0.85" />
<line x1="32.4" y1="0" x2="32.4" y2="1080" stroke="rgba(255,255,255,0.18)" stroke-width="1.2" />
<line x1="48" y1="0" x2="48" y2="1080" stroke="rgba(0,0,0,0.4)" stroke-width="1.2" />
<rect x="48" y="0" width="24" height="1080" fill="url(#fluteGradient)" mix-blend-mode="overlay" opacity="0.85" />
<line x1="56.4" y1="0" x2="56.4" y2="1080" stroke="rgba(255,255,255,0.18)" stroke-width="1.2" />
<line x1="72" y1="0" x2="72" y2="1080" stroke="rgba(0,0,0,0.4)" stroke-width="1.2" />
<rect x="72" y="0" width="24" height="1080" fill="url(#fluteGradient)" mix-blend-mode="overlay" opacity="0.85" />
<line x1="80.4" y1="0" x2="80.4" y2="1080" stroke="rgba(255,255,255,0.18)" stroke-width="1.2" />
<line x1="96" y1="0" x2="96" y2="1080" stroke="rgba(0,0,0,0.4)" stroke-width="1.2" />
<rect x="96" y="0" width="24" height="1080" fill="url(#fluteGradient)" mix-blend-mode="overlay" opacity="0.85" />
<line x1="104.4" y1="0" x2="104.4" y2="1080" stroke="rgba(255,255,255,0.18)" stroke-width="1.2" />
<line x1="120" y1="0" x2="120" y2="1080" stroke="rgba(0,0,0,0.4)" stroke-width="1.2" />
<rect x="120" y="0" width="24" height="1080" fill="url(#fluteGradient)" mix-blend-mode="overlay" opacity="0.85" />
<line x1="128.4" y1="0" x2="128.4" y2="1080" stroke="rgba(255,255,255,0.18)" stroke-width="1.2" />
<line x1="144" y1="0" x2="144" y2="1080" stroke="rgba(0,0,0,0.4)" stroke-width="1.2" />
<rect x="144" y="0" width="24" height="1080" fill="url(#fluteGradient)" mix-blend-mode="overlay" opacity="0.85" />
<line x1="152.4" y1="0" x2="152.4" y2="1080" stroke="rgba(255,255,255,0.18)" stroke-width="1.2" />
<line x1="168" y1="0" x2="168" y2="1080" stroke="rgba(0,0,0,0.4)" stroke-width="1.2" />
<rect x="168" y="0" width="24" height="1080" fill="url(#fluteGradient)" mix-blend-mode="overlay" opacity="0.85" />
<line x1="176.4" y1="0" x2="176.4" y2="1080" stroke="rgba(255,255,255,0.18)" stroke-width="1.2" />
<line x1="192" y1="0" x2="192" y2="1080" stroke="rgba(0,0,0,0.4)" stroke-width="1.2" />
<rect x="192" y="0" width="24" height="1080" fill="url(#fluteGradient)" mix-blend-mode="overlay" opacity="0.85" />
<line x1="200.4" y1="0" x2="200.4" y2="1080" stroke="rgba(255,255,255,0.18)" stroke-width="1.2" />
<line x1="216" y1="0" x2="216" y2="1080" stroke="rgba(0,0,0,0.4)" stroke-width="1.2" />
<rect x="216" y="0" width="24" height="1080" fill="url(#fluteGradient)" mix-blend-mode="overlay" opacity="0.85" />
<line x1="224.4" y1="0" x2="224.4" y2="1080" stroke="rgba(255,255,255,0.18)" stroke-width="1.2" />
<line x1="240" y1="0" x2="240" y2="1080" stroke="rgba(0,0,0,0.4)" stroke-width="1.2" />
<rect x="240" y="0" width="24" height="1080" fill="url(#fluteGradient)" mix-blend-mode="overlay" opacity="0.85" />
<line x1="248.4" y1="0" x2="248.4" y2="1080" stroke="rgba(255,255,255,0.18)" stroke-width="1.2" />
<line x1="264" y1="0" x2="264" y2="1080" stroke="rgba(0,0,0,0.4)" stroke-width="1.2" />
<rect x="264" y="0" width="24" height="1080" fill="url(#fluteGradient)" mix-blend-mode="overlay" opacity="0.85" />
<line x1="272.4" y1="0" x2="272.4" y2="1080" stroke="rgba(255,255,255,0.18)" stroke-width="1.2" />
<line x1="288" y1="0" x2="288" y2="1080" stroke="rgba(0,0,0,0.4)" stroke-width="1.2" />
<rect x="288" y="0" width="24" height="1080" fill="url(#fluteGradient)" mix-blend-mode="overlay" opacity="0.85" />
<line x1="296.4" y1="0" x2="296.4" y2="1080" stroke="rgba(255,255,255,0.18)" stroke-width="1.2" />
<line x1="312" y1="0" x2="312" y2="1080" stroke="rgba(0,0,0,0.4)" stroke-width="1.2" />
<rect x="312" y="0" width="24" height="1080" fill="url(#fluteGradient)" mix-blend-mode="overlay" opacity="0.85" />
<line x1="320.4" y1="0" x2="320.4" y2="1080" stroke="rgba(255,255,255,0.18)" stroke-width="1.2" />
<line x1="336" y1="0" x2="336" y2="1080" stroke="rgba(0,0,0,0.4)" stroke-width="1.2" />
<rect x="336" y="0" width="24" height="1080" fill="url(#fluteGradient)" mix-blend-mode="overlay" opacity="0.85" />
<line x1="344.4" y1="0" x2="344.4" y2="1080" stroke="rgba(255,255,255,0.18)" stroke-width="1.2" />
<line x1="360" y1="0" x2="360" y2="1080" stroke="rgba(0,0,0,0.4)" stroke-width="1.2" />
<rect x="360" y="0" width="24" height="1080" fill="url(#fluteGradient)" mix-blend-mode="overlay" opacity="0.85" />
<line x1="368.4" y1="0" x2="368.4" y2="1080" stroke="rgba(255,255,255,0.18)" stroke-width="1.2" />
<line x1="384" y1="0" x2="384" y2="1080" stroke="rgba(0,0,0,0.4)" stroke-width="1.2" />
<rect x="384" y="0" width="24" height="1080" fill="url(#fluteGradient)" mix-blend-mode="overlay" opacity="0.85" />
<line x1="392.4" y1="0" x2="392.4" y2="1080" stroke="rgba(255,255,255,0.18)" stroke-width="1.2" />
<line x1="408" y1="0" x2="408" y2="1080" stroke="rgba(0,0,0,0.4)" stroke-width="1.2" />
<rect x="408" y="0" width="24" height="1080" fill="url(#fluteGradient)" mix-blend-mode="overlay" opacity="0.85" />
<line x1="416.4" y1="0" x2="416.4" y2="1080" stroke="rgba(255,255,255,0.18)" stroke-width="1.2" />
<line x1="432" y1="0" x2="432" y2="1080" stroke="rgba(0,0,0,0.4)" stroke-width="1.2" />
<rect x="432" y="0" width="24" height="1080" fill="url(#fluteGradient)" mix-blend-mode="overlay" opacity="0.85" />
<line x1="440.4" y1="0" x2="440.4" y2="1080" stroke="rgba(255,255,255,0.18)" stroke-width="1.2" />
<line x1="456" y1="0" x2="456" y2="1080" stroke="rgba(0,0,0,0.4)" stroke-width="1.2" />
<rect x="456" y="0" width="24" height="1080" fill="url(#fluteGradient)" mix-blend-mode="overlay" opacity="0.85" />
<line x1="464.4" y1="0" x2="464.4" y2="1080" stroke="rgba(255,255,255,0.18)" stroke-width="1.2" />
<line x1="480" y1="0" x2="480" y2="1080" stroke="rgba(0,0,0,0.4)" stroke-width="1.2" />
<rect x="480" y="0" width="24" height="1080" fill="url(#fluteGradient)" mix-blend-mode="overlay" opacity="0.85" />
<line x1="488.4" y1="0" x2="488.4" y2="1080" stroke="rgba(255,255,255,0.18)" stroke-width="1.2" />
<line x1="504" y1="0" x2="504" y2="1080" stroke="rgba(0,0,0,0.4)" stroke-width="1.2" />
<rect x="504" y="0" width="24" height="1080" fill="url(#fluteGradient)" mix-blend-mode="overlay" opacity="0.85" />
<line x1="512.4" y1="0" x2="512.4" y2="1080" stroke="rgba(255,255,255,0.18)" stroke-width="1.2" />
<line x1="528" y1="0" x2="528" y2="1080" stroke="rgba(0,0,0,0.4)" stroke-width="1.2" />
<rect x="528" y="0" width="24" height="1080" fill="url(#fluteGradient)" mix-blend-mode="overlay" opacity="0.85" />
<line x1="536.4" y1="0" x2="536.4" y2="1080" stroke="rgba(255,255,255,0.18)" stroke-width="1.2" />
<line x1="552" y1="0" x2="552" y2="1080" stroke="rgba(0,0,0,0.4)" stroke-width="1.2" />
<rect x="552" y="0" width="24" height="1080" fill="url(#fluteGradient)" mix-blend-mode="overlay" opacity="0.85" />
<line x1="560.4" y1="0" x2="560.4" y2="1080" stroke="rgba(255,255,255,0.18)" stroke-width="1.2" />
<line x1="576" y1="0" x2="576" y2="1080" stroke="rgba(0,0,0,0.4)" stroke-width="1.2" />
<rect x="576" y="0" width="24" height="1080" fill="url(#fluteGradient)" mix-blend-mode="overlay" opacity="0.85" />
<line x1="584.4" y1="0" x2="584.4" y2="1080" stroke="rgba(255,255,255,0.18)" stroke-width="1.2" />
<line x1="600" y1="0" x2="600" y2="1080" stroke="rgba(0,0,0,0.4)" stroke-width="1.2" />
<rect x="600" y="0" width="24" height="1080" fill="url(#fluteGradient)" mix-blend-mode="overlay" opacity="0.85" />
<line x1="608.4" y1="0" x2="608.4" y2="1080" stroke="rgba(255,255,255,0.18)" stroke-width="1.2" />
<line x1="624" y1="0" x2="624" y2="1080" stroke="rgba(0,0,0,0.4)" stroke-width="1.2" />
<rect x="624" y="0" width="24" height="1080" fill="url(#fluteGradient)" mix-blend-mode="overlay" opacity="0.85" />
<line x1="632.4" y1="0" x2="632.4" y2="1080" stroke="rgba(255,255,255,0.18)" stroke-width="1.2" />
<line x1="648" y1="0" x2="648" y2="1080" stroke="rgba(0,0,0,0.4)" stroke-width="1.2" />
<rect x="648" y="0" width="24" height="1080" fill="url(#fluteGradient)" mix-blend-mode="overlay" opacity="0.85" />
<line x1="656.4" y1="0" x2="656.4" y2="1080" stroke="rgba(255,255,255,0.18)" stroke-width="1.2" />
<line x1="672" y1="0" x2="672" y2="1080" stroke="rgba(0,0,0,0.4)" stroke-width="1.2" />
<rect x="672" y="0" width="24" height="1080" fill="url(#fluteGradient)" mix-blend-mode="overlay" opacity="0.85" />
<line x1="680.4" y1="0" x2="680.4" y2="1080" stroke="rgba(255,255,255,0.18)" stroke-width="1.2" />
<line x1="696" y1="0" x2="696" y2="1080" stroke="rgba(0,0,0,0.4)" stroke-width="1.2" />
<rect x="696" y="0" width="24" height="1080" fill="url(#fluteGradient)" mix-blend-mode="overlay" opacity="0.85" />
<line x1="704.4" y1="0" x2="704.4" y2="1080" stroke="rgba(255,255,255,0.18)" stroke-width="1.2" />
<line x1="720" y1="0" x2="720" y2="1080" stroke="rgba(0,0,0,0.4)" stroke-width="1.2" />
<rect x="720" y="0" width="24" height="1080" fill="url(#fluteGradient)" mix-blend-mode="overlay" opacity="0.85" />
<line x1="728.4" y1="0" x2="728.4" y2="1080" stroke="rgba(255,255,255,0.18)" stroke-width="1.2" />
<line x1="744" y1="0" x2="744" y2="1080" stroke="rgba(0,0,0,0.4)" stroke-width="1.2" />
<rect x="744" y="0" width="24" height="1080" fill="url(#fluteGradient)" mix-blend-mode="overlay" opacity="0.85" />
<line x1="752.4" y1="0" x2="752.4" y2="1080" stroke="rgba(255,255,255,0.18)" stroke-width="1.2" />
<line x1="768" y1="0" x2="768" y2="1080" stroke="rgba(0,0,0,0.4)" stroke-width="1.2" />
<rect x="768" y="0" width="24" height="1080" fill="url(#fluteGradient)" mix-blend-mode="overlay" opacity="0.85" />
<line x1="776.4" y1="0" x2="776.4" y2="1080" stroke="rgba(255,255,255,0.18)" stroke-width="1.2" />
<line x1="792" y1="0" x2="792" y2="1080" stroke="rgba(0,0,0,0.4)" stroke-width="1.2" />
<rect x="792" y="0" width="24" height="1080" fill="url(#fluteGradient)" mix-blend-mode="overlay" opacity="0.85" />
<line x1="800.4" y1="0" x2="800.4" y2="1080" stroke="rgba(255,255,255,0.18)" stroke-width="1.2" />
<line x1="816" y1="0" x2="816" y2="1080" stroke="rgba(0,0,0,0.4)" stroke-width="1.2" />
<rect x="816" y="0" width="24" height="1080" fill="url(#fluteGradient)" mix-blend-mode="overlay" opacity="0.85" />
<line x1="824.4" y1="0" x2="824.4" y2="1080" stroke="rgba(255,255,255,0.18)" stroke-width="1.2" />
<line x1="840" y1="0" x2="840" y2="1080" stroke="rgba(0,0,0,0.4)" stroke-width="1.2" />
<rect x="840" y="0" width="24" height="1080" fill="url(#fluteGradient)" mix-blend-mode="overlay" opacity="0.85" />
<line x1="848.4" y1="0" x2="848.4" y2="1080" stroke="rgba(255,255,255,0.18)" stroke-width="1.2" />
<line x1="864" y1="0" x2="864" y2="1080" stroke="rgba(0,0,0,0.4)" stroke-width="1.2" />
<rect x="864" y="0" width="24" height="1080" fill="url(#fluteGradient)" mix-blend-mode="overlay" opacity="0.85" />
<line x1="872.4" y1="0" x2="872.4" y2="1080" stroke="rgba(255,255,255,0.18)" stroke-width="1.2" />
<line x1="888" y1="0" x2="888" y2="1080" stroke="rgba(0,0,0,0.4)" stroke-width="1.2" />
<rect x="888" y="0" width="24" height="1080" fill="url(#fluteGradient)" mix-blend-mode="overlay" opacity="0.85" />
<line x1="896.4" y1="0" x2="896.4" y2="1080" stroke="rgba(255,255,255,0.18)" stroke-width="1.2" />
<line x1="912" y1="0" x2="912" y2="1080" stroke="rgba(0,0,0,0.4)" stroke-width="1.2" />
<rect x="912" y="0" width="24" height="1080" fill="url(#fluteGradient)" mix-blend-mode="overlay" opacity="0.85" />
<line x1="920.4" y1="0" x2="920.4" y2="1080" stroke="rgba(255,255,255,0.18)" stroke-width="1.2" />
<line x1="936" y1="0" x2="936" y2="1080" stroke="rgba(0,0,0,0.4)" stroke-width="1.2" />
<rect x="936" y="0" width="24" height="1080" fill="url(#fluteGradient)" mix-blend-mode="overlay" opacity="0.85" />
<line x1="944.4" y1="0" x2="944.4" y2="1080" stroke="rgba(255,255,255,0.18)" stroke-width="1.2" />
<line x1="960" y1="0" x2="960" y2="1080" stroke="rgba(0,0,0,0.4)" stroke-width="1.2" />
<rect x="960" y="0" width="24" height="1080" fill="url(#fluteGradient)" mix-blend-mode="overlay" opacity="0.85" />
<line x1="968.4" y1="0" x2="968.4" y2="1080" stroke="rgba(255,255,255,0.18)" stroke-width="1.2" />
<line x1="984" y1="0" x2="984" y2="1080" stroke="rgba(0,0,0,0.4)" stroke-width="1.2" />
<rect x="984" y="0" width="24" height="1080" fill="url(#fluteGradient)" mix-blend-mode="overlay" opacity="0.85" />
<line x1="992.4" y1="0" x2="992.4" y2="1080" stroke="rgba(255,255,255,0.18)" stroke-width="1.2" />
<line x1="1008" y1="0" x2="1008" y2="1080" stroke="rgba(0,0,0,0.4)" stroke-width="1.2" />
<rect x="1008" y="0" width="24" height="1080" fill="url(#fluteGradient)" mix-blend-mode="overlay" opacity="0.85" />
<line x1="1016.4" y1="0" x2="1016.4" y2="1080" stroke="rgba(255,255,255,0.18)" stroke-width="1.2" />
<line x1="1032" y1="0" x2="1032" y2="1080" stroke="rgba(0,0,0,0.4)" stroke-width="1.2" />
<rect x="1032" y="0" width="24" height="1080" fill="url(#fluteGradient)" mix-blend-mode="overlay" opacity="0.85" />
<line x1="1040.4" y1="0" x2="1040.4" y2="1080" stroke="rgba(255,255,255,0.18)" stroke-width="1.2" />
<line x1="1056" y1="0" x2="1056" y2="1080" stroke="rgba(0,0,0,0.4)" stroke-width="1.2" />
<rect x="1056" y="0" width="24" height="1080" fill="url(#fluteGradient)" mix-blend-mode="overlay" opacity="0.85" />
<line x1="1064.4" y1="0" x2="1064.4" y2="1080" stroke="rgba(255,255,255,0.18)" stroke-width="1.2" />
<line x1="1080" y1="0" x2="1080" y2="1080" stroke="rgba(0,0,0,0.4)" stroke-width="1.2" />
<rect x="1080" y="0" width="24" height="1080" fill="url(#fluteGradient)" mix-blend-mode="overlay" opacity="0.85" />
<line x1="1088.4" y1="0" x2="1088.4" y2="1080" stroke="rgba(255,255,255,0.18)" stroke-width="1.2" />
<line x1="1104" y1="0" x2="1104" y2="1080" stroke="rgba(0,0,0,0.4)" stroke-width="1.2" />
<rect x="1104" y="0" width="24" height="1080" fill="url(#fluteGradient)" mix-blend-mode="overlay" opacity="0.85" />
<line x1="1112.4" y1="0" x2="1112.4" y2="1080" stroke="rgba(255,255,255,0.18)" stroke-width="1.2" />
<line x1="1128" y1="0" x2="1128" y2="1080" stroke="rgba(0,0,0,0.4)" stroke-width="1.2" />
<rect x="1128" y="0" width="24" height="1080" fill="url(#fluteGradient)" mix-blend-mode="overlay" opacity="0.85" />
<line x1="1136.4" y1="0" x2="1136.4" y2="1080" stroke="rgba(255,255,255,0.18)" stroke-width="1.2" />
<line x1="1152" y1="0" x2="1152" y2="1080" stroke="rgba(0,0,0,0.4)" stroke-width="1.2" />
<rect x="1152" y="0" width="24" height="1080" fill="url(#fluteGradient)" mix-blend-mode="overlay" opacity="0.85" />
<line x1="1160.4" y1="0" x2="1160.4" y2="1080" stroke="rgba(255,255,255,0.18)" stroke-width="1.2" />
<line x1="1176" y1="0" x2="1176" y2="1080" stroke="rgba(0,0,0,0.4)" stroke-width="1.2" />
<rect x="1176" y="0" width="24" height="1080" fill="url(#fluteGradient)" mix-blend-mode="overlay" opacity="0.85" />
<line x1="1184.4" y1="0" x2="1184.4" y2="1080" stroke="rgba(255,255,255,0.18)" stroke-width="1.2" />
<line x1="1200" y1="0" x2="1200" y2="1080" stroke="rgba(0,0,0,0.4)" stroke-width="1.2" />
<rect x="1200" y="0" width="24" height="1080" fill="url(#fluteGradient)" mix-blend-mode="overlay" opacity="0.85" />
<line x1="1208.4" y1="0" x2="1208.4" y2="1080" stroke="rgba(255,255,255,0.18)" stroke-width="1.2" />
<line x1="1224" y1="0" x2="1224" y2="1080" stroke="rgba(0,0,0,0.4)" stroke-width="1.2" />
<rect x="1224" y="0" width="24" height="1080" fill="url(#fluteGradient)" mix-blend-mode="overlay" opacity="0.85" />
<line x1="1232.4" y1="0" x2="1232.4" y2="1080" stroke="rgba(255,255,255,0.18)" stroke-width="1.2" />
<line x1="1248" y1="0" x2="1248" y2="1080" stroke="rgba(0,0,0,0.4)" stroke-width="1.2" />
<rect x="1248" y="0" width="24" height="1080" fill="url(#fluteGradient)" mix-blend-mode="overlay" opacity="0.85" />
<line x1="1256.4" y1="0" x2="1256.4" y2="1080" stroke="rgba(255,255,255,0.18)" stroke-width="1.2" />
<line x1="1272" y1="0" x2="1272" y2="1080" stroke="rgba(0,0,0,0.4)" stroke-width="1.2" />
<rect x="1272" y="0" width="24" height="1080" fill="url(#fluteGradient)" mix-blend-mode="overlay" opacity="0.85" />
<line x1="1280.4" y1="0" x2="1280.4" y2="1080" stroke="rgba(255,255,255,0.18)" stroke-width="1.2" />
<line x1="1296" y1="0" x2="1296" y2="1080" stroke="rgba(0,0,0,0.4)" stroke-width="1.2" />
<rect x="1296" y="0" width="24" height="1080" fill="url(#fluteGradient)" mix-blend-mode="overlay" opacity="0.85" />
<line x1="1304.4" y1="0" x2="1304.4" y2="1080" stroke="rgba(255,255,255,0.18)" stroke-width="1.2" />
<line x1="1320" y1="0" x2="1320" y2="1080" stroke="rgba(0,0,0,0.4)" stroke-width="1.2" />
<rect x="1320" y="0" width="24" height="1080" fill="url(#fluteGradient)" mix-blend-mode="overlay" opacity="0.85" />
<line x1="1328.4" y1="0" x2="1328.4" y2="1080" stroke="rgba(255,255,255,0.18)" stroke-width="1.2" />
<line x1="1344" y1="0" x2="1344" y2="1080" stroke="rgba(0,0,0,0.4)" stroke-width="1.2" />
<rect x="1344" y="0" width="24" height="1080" fill="url(#fluteGradient)" mix-blend-mode="overlay" opacity="0.85" />
<line x1="1352.4" y1="0" x2="1352.4" y2="1080" stroke="rgba(255,255,255,0.18)" stroke-width="1.2" />
<line x1="1368" y1="0" x2="1368" y2="1080" stroke="rgba(0,0,0,0.4)" stroke-width="1.2" />
<rect x="1368" y="0" width="24" height="1080" fill="url(#fluteGradient)" mix-blend-mode="overlay" opacity="0.85" />
<line x1="1376.4" y1="0" x2="1376.4" y2="1080" stroke="rgba(255,255,255,0.18)" stroke-width="1.2" />
<line x1="1392" y1="0" x2="1392" y2="1080" stroke="rgba(0,0,0,0.4)" stroke-width="1.2" />
<rect x="1392" y="0" width="24" height="1080" fill="url(#fluteGradient)" mix-blend-mode="overlay" opacity="0.85" />
<line x1="1400.4" y1="0" x2="1400.4" y2="1080" stroke="rgba(255,255,255,0.18)" stroke-width="1.2" />
<line x1="1416" y1="0" x2="1416" y2="1080" stroke="rgba(0,0,0,0.4)" stroke-width="1.2" />
<rect x="1416" y="0" width="24" height="1080" fill="url(#fluteGradient)" mix-blend-mode="overlay" opacity="0.85" />
<line x1="1424.4" y1="0" x2="1424.4" y2="1080" stroke="rgba(255,255,255,0.18)" stroke-width="1.2" />
<line x1="1440" y1="0" x2="1440" y2="1080" stroke="rgba(0,0,0,0.4)" stroke-width="1.2" />
<rect x="1440" y="0" width="24" height="1080" fill="url(#fluteGradient)" mix-blend-mode="overlay" opacity="0.85" />
<line x1="1448.4" y1="0" x2="1448.4" y2="1080" stroke="rgba(255,255,255,0.18)" stroke-width="1.2" />
<line x1="1464" y1="0" x2="1464" y2="1080" stroke="rgba(0,0,0,0.4)" stroke-width="1.2" />
<rect x="1464" y="0" width="24" height="1080" fill="url(#fluteGradient)" mix-blend-mode="overlay" opacity="0.85" />
<line x1="1472.4" y1="0" x2="1472.4" y2="1080" stroke="rgba(255,255,255,0.18)" stroke-width="1.2" />
<line x1="1488" y1="0" x2="1488" y2="1080" stroke="rgba(0,0,0,0.4)" stroke-width="1.2" />
<rect x="1488" y="0" width="24" height="1080" fill="url(#fluteGradient)" mix-blend-mode="overlay" opacity="0.85" />
<line x1="1496.4" y1="0" x2="1496.4" y2="1080" stroke="rgba(255,255,255,0.18)" stroke-width="1.2" />
<line x1="1512" y1="0" x2="1512" y2="1080" stroke="rgba(0,0,0,0.4)" stroke-width="1.2" />
<rect x="1512" y="0" width="24" height="1080" fill="url(#fluteGradient)" mix-blend-mode="overlay" opacity="0.85" />
<line x1="1520.4" y1="0" x2="1520.4" y2="1080" stroke="rgba(255,255,255,0.18)" stroke-width="1.2" />
<line x1="1536" y1="0" x2="1536" y2="1080" stroke="rgba(0,0,0,0.4)" stroke-width="1.2" />
<rect x="1536" y="0" width="24" height="1080" fill="url(#fluteGradient)" mix-blend-mode="overlay" opacity="0.85" />
<line x1="1544.4" y1="0" x2="1544.4" y2="1080" stroke="rgba(255,255,255,0.18)" stroke-width="1.2" />
<line x1="1560" y1="0" x2="1560" y2="1080" stroke="rgba(0,0,0,0.4)" stroke-width="1.2" />
<rect x="1560" y="0" width="24" height="1080" fill="url(#fluteGradient)" mix-blend-mode="overlay" opacity="0.85" />
<line x1="1568.4" y1="0" x2="1568.4" y2="1080" stroke="rgba(255,255,255,0.18)" stroke-width="1.2" />
<line x1="1584" y1="0" x2="1584" y2="1080" stroke="rgba(0,0,0,0.4)" stroke-width="1.2" />
<rect x="1584" y="0" width="24" height="1080" fill="url(#fluteGradient)" mix-blend-mode="overlay" opacity="0.85" />
<line x1="1592.4" y1="0" x2="1592.4" y2="1080" stroke="rgba(255,255,255,0.18)" stroke-width="1.2" />
<line x1="1608" y1="0" x2="1608" y2="1080" stroke="rgba(0,0,0,0.4)" stroke-width="1.2" />
<rect x="1608" y="0" width="24" height="1080" fill="url(#fluteGradient)" mix-blend-mode="overlay" opacity="0.85" />
<line x1="1616.4" y1="0" x2="1616.4" y2="1080" stroke="rgba(255,255,255,0.18)" stroke-width="1.2" />
<line x1="1632" y1="0" x2="1632" y2="1080" stroke="rgba(0,0,0,0.4)" stroke-width="1.2" />
<rect x="1632" y="0" width="24" height="1080" fill="url(#fluteGradient)" mix-blend-mode="overlay" opacity="0.85" />
<line x1="1640.4" y1="0" x2="1640.4" y2="1080" stroke="rgba(255,255,255,0.18)" stroke-width="1.2" />
<line x1="1656" y1="0" x2="1656" y2="1080" stroke="rgba(0,0,0,0.4)" stroke-width="1.2" />
<rect x="1656" y="0" width="24" height="1080" fill="url(#fluteGradient)" mix-blend-mode="overlay" opacity="0.85" />
<line x1="1664.4" y1="0" x2="1664.4" y2="1080" stroke="rgba(255,255,255,0.18)" stroke-width="1.2" />
<line x1="1680" y1="0" x2="1680" y2="1080" stroke="rgba(0,0,0,0.4)" stroke-width="1.2" />
<rect x="1680" y="0" width="24" height="1080" fill="url(#fluteGradient)" mix-blend-mode="overlay" opacity="0.85" />
<line x1="1688.4" y1="0" x2="1688.4" y2="1080" stroke="rgba(255,255,255,0.18)" stroke-width="1.2" />
<line x1="1704" y1="0" x2="1704" y2="1080" stroke="rgba(0,0,0,0.4)" stroke-width="1.2" />
<rect x="1704" y="0" width="24" height="1080" fill="url(#fluteGradient)" mix-blend-mode="overlay" opacity="0.85" />
<line x1="1712.4" y1="0" x2="1712.4" y2="1080" stroke="rgba(255,255,255,0.18)" stroke-width="1.2" />
<line x1="1728" y1="0" x2="1728" y2="1080" stroke="rgba(0,0,0,0.4)" stroke-width="1.2" />
<rect x="1728" y="0" width="24" height="1080" fill="url(#fluteGradient)" mix-blend-mode="overlay" opacity="0.85" />
<line x1="1736.4" y1="0" x2="1736.4" y2="1080" stroke="rgba(255,255,255,0.18)" stroke-width="1.2" />
<line x1="1752" y1="0" x2="1752" y2="1080" stroke="rgba(0,0,0,0.4)" stroke-width="1.2" />
<rect x="1752" y="0" width="24" height="1080" fill="url(#fluteGradient)" mix-blend-mode="overlay" opacity="0.85" />
<line x1="1760.4" y1="0" x2="1760.4" y2="1080" stroke="rgba(255,255,255,0.18)" stroke-width="1.2" />
<line x1="1776" y1="0" x2="1776" y2="1080" stroke="rgba(0,0,0,0.4)" stroke-width="1.2" />
<rect x="1776" y="0" width="24" height="1080" fill="url(#fluteGradient)" mix-blend-mode="overlay" opacity="0.85" />
<line x1="1784.4" y1="0" x2="1784.4" y2="1080" stroke="rgba(255,255,255,0.18)" stroke-width="1.2" />
<line x1="1800" y1="0" x2="1800" y2="1080" stroke="rgba(0,0,0,0.4)" stroke-width="1.2" />
<rect x="1800" y="0" width="24" height="1080" fill="url(#fluteGradient)" mix-blend-mode="overlay" opacity="0.85" />
<line x1="1808.4" y1="0" x2="1808.4" y2="1080" stroke="rgba(255,255,255,0.18)" stroke-width="1.2" />
<line x1="1824" y1="0" x2="1824" y2="1080" stroke="rgba(0,0,0,0.4)" stroke-width="1.2" />
<rect x="1824" y="0" width="24" height="1080" fill="url(#fluteGradient)" mix-blend-mode="overlay" opacity="0.85" />
<line x1="1832.4" y1="0" x2="1832.4" y2="1080" stroke="rgba(255,255,255,0.18)" stroke-width="1.2" />
<line x1="1848" y1="0" x2="1848" y2="1080" stroke="rgba(0,0,0,0.4)" stroke-width="1.2" />
<rect x="1848" y="0" width="24" height="1080" fill="url(#fluteGradient)" mix-blend-mode="overlay" opacity="0.85" />
<line x1="1856.4" y1="0" x2="1856.4" y2="1080" stroke="rgba(255,255,255,0.18)" stroke-width="1.2" />
<line x1="1872" y1="0" x2="1872" y2="1080" stroke="rgba(0,0,0,0.4)" stroke-width="1.2" />
<rect x="1872" y="0" width="24" height="1080" fill="url(#fluteGradient)" mix-blend-mode="overlay" opacity="0.85" />
<line x1="1880.4" y1="0" x2="1880.4" y2="1080" stroke="rgba(255,255,255,0.18)" stroke-width="1.2" />
<line x1="1896" y1="0" x2="1896" y2="1080" stroke="rgba(0,0,0,0.4)" stroke-width="1.2" />
<rect x="1896" y="0" width="24" height="1080" fill="url(#fluteGradient)" mix-blend-mode="overlay" opacity="0.85" />
<line x1="1904.4" y1="0" x2="1904.4" y2="1080" stroke="rgba(255,255,255,0.18)" stroke-width="1.2" />
<line x1="1920" y1="0" x2="1920" y2="1080" stroke="rgba(0,0,0,0.4)" stroke-width="1.2" />

  </g>

  <!-- Horizontal Highlight Glints Across Flutes -->
  <g opacity="0.3" mix-blend-mode="screen">
    <ellipse cx="750" cy="320" rx="450" ry="4" fill="#FFFFFF" />
    <ellipse cx="1200" cy="520" rx="350" ry="3" fill="#5EEAD4" />
    <ellipse cx="500" cy="680" rx="280" ry="3" fill="#FFFFFF" />
  </g>

  <!-- Vignette & Edge Shadowing -->
  <rect width="1920" height="1080" fill="url(#vignette)" />
</svg>